<svg version="1.1" id="Layer_1" xmlns="http://www.w3.org/2000/svg" xmlns:xlink="http://www.w3.org/1999/xlink" x="0px" y="0px"
	 width="100%" viewBox="0 0 512 512" enable-background="new 0 0 512 512" xml:space="preserve">
<path fill="#000000" opacity="1.000000" stroke="none" 
	d="
M353.000000,513.000000 
	C235.361923,513.000000 118.223839,513.000000 1.042876,513.000000 
	C1.042876,342.403564 1.042876,171.807114 1.042876,1.105330 
	C171.554749,1.105330 342.109589,1.105330 512.832214,1.105330 
	C512.832214,171.666534 512.832214,342.333252 512.832214,513.000000 
	C459.807037,513.000000 406.653534,513.000000 353.000000,513.000000 
M257.738281,408.988312 
	C276.371826,418.736755 295.021057,428.455444 313.633392,438.244263 
	C325.810211,444.648407 337.847992,451.322479 350.107788,457.561676 
	C360.149506,462.672089 370.247223,467.756134 380.654724,472.038757 
	C389.727142,475.772034 401.438416,468.110748 402.749298,459.848358 
	C403.706879,453.812439 402.758118,447.349884 401.917053,441.178619 
	C400.162811,428.306824 398.024780,415.483704 395.843079,402.674866 
	C393.692352,390.048004 391.204590,377.478729 389.026062,364.856354 
	C386.543121,350.470276 384.166748,336.064423 381.953278,321.635071 
	C381.695068,319.952057 382.189850,317.490509 383.312866,316.365692 
	C390.919525,308.746887 398.843719,301.446808 406.561798,293.937317 
	C420.964966,279.923370 435.327728,265.867584 449.648804,251.769836 
	C458.670135,242.889160 467.292969,233.581223 476.622803,225.042053 
	C487.967926,214.658310 483.400909,195.535080 468.809326,192.131470 
	C461.720001,190.477798 454.353943,190.026199 447.124451,188.954422 
	C433.934967,186.999054 420.761292,184.936188 407.566864,183.015488 
	C397.733887,181.584122 387.872467,180.349213 378.034851,178.948456 
	C366.761444,177.343262 355.530304,175.389359 344.222565,174.096313 
	C337.499237,173.327499 332.744141,171.274307 329.864380,164.369370 
	C325.509613,153.927933 319.993317,143.971130 314.975342,133.806061 
	C301.642639,106.797638 288.318726,79.784889 274.977203,52.780815 
	C271.302856,45.343662 265.437500,41.245953 256.181763,41.013084 
	C248.590805,41.442398 243.013733,45.065250 239.645355,51.832474 
	C231.769272,67.655800 224.051590,83.557945 216.182785,99.384926 
	C204.549408,122.783806 192.896149,146.173447 181.043945,169.461487 
	C180.216614,171.087082 177.802307,172.519196 175.908112,172.872131 
	C170.298981,173.917343 164.562714,174.254929 158.908707,175.089676 
	C146.039246,176.989685 133.200516,179.098816 120.327675,180.974594 
	C110.152657,182.457275 99.935318,183.647858 89.754997,185.096222 
	C76.382912,186.998718 63.021736,188.981232 49.669518,191.018753 
	C42.071873,192.178116 35.556679,195.104080 32.597507,202.907730 
	C29.793911,210.301117 30.082413,217.473633 35.912216,223.302536 
	C47.061398,234.450043 58.536152,245.271042 69.794418,256.310516 
	C90.328133,276.445221 110.812889,296.629974 131.264557,316.847961 
	C132.099274,317.673096 133.006119,319.150787 132.840515,320.152740 
	C130.620697,333.583374 128.237091,346.987244 125.851013,360.390045 
	C123.259048,374.949463 120.578072,389.493073 118.016739,404.057800 
	C115.346230,419.243317 112.605598,434.419739 110.220871,449.651031 
	C108.877213,458.233032 111.349083,465.374237 119.873070,470.359833 
	C129.126236,475.771790 137.246689,471.554321 145.398544,467.200256 
	C160.711548,459.021301 176.114136,451.010315 191.455643,442.884491 
	C202.632446,436.964539 213.720108,430.874542 224.941208,425.040527 
	C235.565002,419.517090 246.310867,414.228455 257.738281,408.988312 
z"/>
<path fill="#FFDC64" opacity="1.000000" stroke="none" 
	d="
M256.995819,41.160461 
	C265.437500,41.245953 271.302856,45.343662 274.977203,52.780815 
	C288.318726,79.784889 301.642639,106.797638 314.975342,133.806061 
	C319.993317,143.971130 325.509613,153.927933 329.864380,164.369370 
	C332.744141,171.274307 337.499237,173.327499 344.222565,174.096313 
	C355.530304,175.389359 366.761444,177.343262 378.034851,178.948456 
	C387.872467,180.349213 397.733887,181.584122 407.566864,183.015488 
	C420.761292,184.936188 433.934967,186.999054 447.124451,188.954422 
	C454.353943,190.026199 461.720001,190.477798 468.809326,192.131470 
	C483.400909,195.535080 487.967926,214.658310 476.622803,225.042053 
	C467.292969,233.581223 458.670135,242.889160 449.648804,251.769836 
	C435.327728,265.867584 420.964966,279.923370 406.561798,293.937317 
	C398.843719,301.446808 390.919525,308.746887 383.312866,316.365692 
	C382.189850,317.490509 381.695068,319.952057 381.953278,321.635071 
	C384.166748,336.064423 386.543121,350.470276 389.026062,364.856354 
	C391.204590,377.478729 393.692352,390.048004 395.843079,402.674866 
	C398.024780,415.483704 400.162811,428.306824 401.917053,441.178619 
	C402.758118,447.349884 403.706879,453.812439 402.749298,459.848358 
	C401.438416,468.110748 389.727142,475.772034 380.654724,472.038757 
	C370.247223,467.756134 360.149506,462.672089 350.107788,457.561676 
	C337.847992,451.322479 325.810211,444.648407 313.633392,438.244263 
	C295.021057,428.455444 276.371826,418.736755 257.349731,408.534424 
	C251.862549,390.889038 246.000885,373.880005 241.836746,356.465057 
	C234.873917,327.345520 231.548904,297.653748 231.008728,267.695526 
	C230.385162,233.114258 231.287628,198.596069 235.977646,164.269150 
	C238.468781,146.036148 240.600983,127.736900 243.741226,109.614159 
	C247.708588,86.718140 252.538162,63.971519 256.995819,41.160461 
z"/>
<path fill="#FFC850" opacity="1.000000" stroke="none" 
	d="
M256.588806,41.086773 
	C252.538162,63.971519 247.708588,86.718140 243.741226,109.614159 
	C240.600983,127.736900 238.468781,146.036148 235.977646,164.269150 
	C231.287628,198.596069 230.385162,233.114258 231.008728,267.695526 
	C231.548904,297.653748 234.873917,327.345520 241.836746,356.465057 
	C246.000885,373.880005 251.862549,390.889038 256.982117,408.458557 
	C246.310867,414.228455 235.565002,419.517090 224.941208,425.040527 
	C213.720108,430.874542 202.632446,436.964539 191.455643,442.884491 
	C176.114136,451.010315 160.711548,459.021301 145.398544,467.200256 
	C137.246689,471.554321 129.126236,475.771790 119.873070,470.359833 
	C111.349083,465.374237 108.877213,458.233032 110.220871,449.651031 
	C112.605598,434.419739 115.346230,419.243317 118.016739,404.057800 
	C120.578072,389.493073 123.259048,374.949463 125.851013,360.390045 
	C128.237091,346.987244 130.620697,333.583374 132.840515,320.152740 
	C133.006119,319.150787 132.099274,317.673096 131.264557,316.847961 
	C110.812889,296.629974 90.328133,276.445221 69.794418,256.310516 
	C58.536152,245.271042 47.061398,234.450043 35.912216,223.302536 
	C30.082413,217.473633 29.793911,210.301117 32.597507,202.907730 
	C35.556679,195.104080 42.071873,192.178116 49.669518,191.018753 
	C63.021736,188.981232 76.382912,186.998718 89.754997,185.096222 
	C99.935318,183.647858 110.152657,182.457275 120.327675,180.974594 
	C133.200516,179.098816 146.039246,176.989685 158.908707,175.089676 
	C164.562714,174.254929 170.298981,173.917343 175.908112,172.872131 
	C177.802307,172.519196 180.216614,171.087082 181.043945,169.461487 
	C192.896149,146.173447 204.549408,122.783806 216.182785,99.384926 
	C224.051590,83.557945 231.769272,67.655800 239.645355,51.832474 
	C243.013733,45.065250 248.590805,41.442398 256.588806,41.086773 
z"/>
</svg>